# xmcd CD database file
#
# Track frame offsets:
#	150
#	19527
#	35458
#	62726
#	79101
#	102736
#	125270
#	150017
#	166796
#	189314
#	210169
#	224045
#	240795
#	254585
#
# Disc length: 3653 seconds
#
# Revision: 1
# Processed by: cddbd v1.5.2PL0 Copyright (c) Steve Scherf et al.
# Submitted via: CDex 1.51
#
DISCID=aa0e430e
DTITLE=Susanne Plahl and The lightning rod - Colours
DYEAR=2015
DGENRE=Blues
TTITLE0=Skyscraper
TTITLE1=Restless Blues
TTITLE2=I could not read
TTITLE3=A simple thing
TTITLE4=Colours
TTITLE5=Mr. Caveman
TTITLE6=A river runs dry
TTITLE7=Music in my dreams
TTITLE8=You taste so good
TTITLE9=Blues in my soul
TTITLE10=Close to you
TTITLE11=A little is not enough
TTITLE12=You confuse me
TTITLE13=Blues in my soul (bonus track)
EXTD=YEAR: 2015
EXTT0=
EXTT1=
EXTT2=
EXTT3=
EXTT4=
EXTT5=
EXTT6=
EXTT7=
EXTT8=
EXTT9=
EXTT10=
EXTT11=
EXTT12=
EXTT13=
PLAYORDER=
